<?xml version="1.0" standalone="no"?>
<!DOCTYPE svg PUBLIC "-//W3C//DTD SVG 20010904//EN"
 "http://www.w3.org/TR/2001/REC-SVG-20010904/DTD/svg10.dtd">
<svg version="1.0" xmlns="http://www.w3.org/2000/svg"
 width="220.000000pt" height="158.000000pt" viewBox="0 0 220.000000 158.000000"
 preserveAspectRatio="xMidYMid meet">

<g transform="translate(0.000000,158.000000) scale(0.100000,-0.100000)"
fill="#000000" stroke="none">
<path d="M892 1222 c-15 -16 -35 -32 -45 -35 -9 -4 -22 -18 -29 -31 -12 -28
-68 -50 -153 -61 -120 -15 -271 -48 -287 -64 -16 -15 -16 -20 -2 -60 12 -37
13 -53 3 -99 -17 -75 -129 -244 -235 -353 -89 -92 -102 -119 -84 -173 6 -19
10 -67 9 -106 -1 -41 3 -76 9 -82 13 -13 165 -16 248 -4 52 7 66 6 102 -13 56
-29 101 -26 182 9 89 39 160 38 361 -6 47 -10 74 -12 92 -5 16 6 78 8 154 4
l128 -6 65 34 c58 29 74 33 145 33 44 0 116 -6 160 -13 71 -12 85 -11 125 4
50 19 122 40 162 49 29 7 48 46 48 104 0 29 -10 44 -63 96 -35 34 -70 79 -79
101 -24 61 -107 311 -129 390 -11 38 -27 78 -37 88 -26 25 -100 44 -317 78
-139 21 -197 35 -217 49 -15 11 -33 20 -41 20 -8 0 -22 9 -32 20 -10 11 -25
20 -32 20 -8 0 -26 9 -40 19 -20 17 -29 18 -49 9 -19 -9 -30 -9 -45 0 -29 18
-48 15 -77 -16z m68 -7 c7 -9 9 -19 5 -23 -4 -4 -10 -1 -12 6 -6 15 -43 16
-43 1 0 -6 7 -9 15 -5 8 3 15 1 15 -4 0 -18 -18 -19 -34 -1 -17 18 -16 20 1
30 25 15 38 14 53 -4z m86 -3 c8 -5 5 -13 -9 -27 -19 -20 -19 -20 -12 5 7 22
6 23 -9 11 -9 -8 -16 -9 -16 -3 0 6 6 13 13 15 17 8 21 8 33 -1z m34 -44 l-25
-21 23 8 c22 6 23 5 13 -14 -14 -25 -41 -28 -41 -4 0 19 28 53 44 53 6 -1 0
-10 -14 -22z m-182 -22 c2 -10 -1 -23 -7 -29 -15 -15 -46 16 -37 38 8 21 40
15 44 -9z m93 0 c-9 -11 -9 -15 1 -18 8 -3 5 -9 -10 -17 -18 -10 -26 -10 -38
0 -8 6 -12 14 -9 17 2 3 12 -1 21 -9 15 -12 17 -12 12 1 -4 14 22 54 30 45 3
-3 0 -11 -7 -19z m185 -41 c7 -38 -14 -77 -63 -115 -40 -31 -172 -29 -233 4
-41 22 -45 28 -48 64 l-3 41 42 -21 c35 -16 57 -19 131 -16 l90 3 30 38 c16
20 34 37 39 37 4 0 11 -16 15 -35z m-146 -5 c0 -5 -5 -10 -11 -10 -5 0 -7 5
-4 10 3 6 8 10 11 10 2 0 4 -4 4 -10z m727 -218 c125 -382 127 -385 190 -447
53 -54 54 -55 51 -107 l-3 -53 -55 -3 c-46 -3 -60 -8 -87 -34 l-32 -31 -108
17 c-215 34 -244 32 -330 -26 -37 -25 -50 -28 -126 -28 -56 0 -95 5 -113 15
-16 8 -41 15 -57 15 l-27 0 7 98 c5 53 8 202 8 330 0 127 1 232 3 232 2 0 35
6 75 14 78 16 173 33 362 67 66 12 133 24 150 28 59 14 59 14 92 -87z m-1162
57 c61 -11 142 -26 180 -34 39 -7 114 -21 167 -31 81 -15 98 -21 102 -38 15
-57 -2 -607 -21 -666 -4 -13 -6 -12 -17 3 -11 13 -29 17 -87 17 -41 1 -92 7
-114 15 -78 28 -155 17 -230 -35 -44 -30 -110 -27 -131 5 -19 30 -52 32 -137
10 -32 -8 -91 -15 -132 -15 l-73 0 -5 93 c-3 50 -9 106 -12 124 -7 30 -2 37
84 124 50 51 91 96 91 100 0 4 6 14 13 21 22 21 88 129 113 183 16 33 24 69
24 104 l0 53 38 -6 c20 -4 87 -16 147 -27z"/>
<path d="M860 1153 c0 -14 19 -38 25 -32 8 8 -5 39 -16 39 -5 0 -9 -3 -9 -7z"/>
<path d="M460 763 c-22 -28 -23 -64 -2 -71 7 -2 12 6 12 20 0 30 17 48 46 48
31 0 38 -16 20 -42 -18 -25 -22 -88 -6 -88 6 0 15 11 21 24 7 14 17 22 25 19
21 -8 17 46 -6 85 -26 43 -78 46 -110 5z m90 -63 c0 -5 -5 -10 -11 -10 -5 0
-7 5 -4 10 3 6 8 10 11 10 2 0 4 -4 4 -10z"/>
<path d="M740 747 c-51 -27 -80 -50 -80 -63 0 -19 4 -18 50 12 43 29 123 44
134 25 9 -14 -3 -73 -13 -66 -9 5 -31 -61 -23 -69 11 -11 21 -6 27 15 5 15 10
17 19 10 19 -16 26 -3 26 53 0 71 -19 96 -73 96 -23 0 -53 -6 -67 -13z"/>
<path d="M424 485 c-10 -25 17 -95 43 -112 20 -14 30 -14 62 -3 22 7 53 10 73
6 112 -22 218 -14 218 17 0 9 -42 12 -153 11 -83 0 -156 -2 -162 -3 -28 -9
-55 25 -55 69 0 25 -18 36 -26 15z"/>
</g>
</svg>
